Coordinates
version=1
nRows=15
nColumns=42
inDegrees=yes

Units are S.I. units (second, meters, Newtons, ...)
If the header above contains a line with 'inDegrees', this indicates whether rotational values are in degrees (yes) or radians (no).

endheader
time	pelvis_tilt	pelvis_list	pelvis_rotation	pelvis_tx	pelvis_ty	pelvis_tz	hip_flexion_r	hip_adduction_r	hip_rotation_r	knee_angle_r	knee_adduction_r	knee_angle_r_beta	ankle_angle_r	subtalar_angle_r	mtp_angle_r	hip_flexion_l	hip_adduction_l	hip_rotation_l	knee_angle_l	knee_adduction_l	knee_angle_l_beta	ankle_angle_l	subtalar_angle_l	mtp_angle_l	lumbar_extension	lumbar_bending	lumbar_rotation	arm_flex_r	arm_add_r	arm_rot_r	elbow_flex_r	pro_sup_r	wrist_flex_r	wrist_dev_r	arm_flex_l	arm_add_l	arm_rot_l	elbow_flex_l	pro_sup_l	wrist_flex_l	wrist_dev_l
      0.00000000	     -7.11944105	     -1.82634194	      3.22440966	     -1.78209797	      0.96065357	     -0.10843248	     16.46810671	      0.84260023	     -7.36557836	     58.87783399	     -0.51423947	      1.02761206	      4.66864486	    -17.16991905	     -9.67160830	     16.02653516	      2.21264296	      4.77712733	     13.17162185	     -3.50413736	      0.22988817	      9.89851166	      0.51027634	     -9.67160830	     -4.12470546	     -2.87009729	     -4.13164529	     -8.11645757	     -9.43378595	     -1.17974396	     23.41774161	     90.00000001	      0.00000000	      0.00000000	      4.24664392	    -16.60852452	      1.00364128	     28.83435757	     90.00000001	      0.00000000	      0.00000000
      0.01000000	     -7.11762643	     -2.01378568	      3.33051295	     -1.77188581	      0.96164140	     -0.10939041	     17.96699896	      0.97206321	     -6.89052626	     58.77321343	     -0.25466109	      1.02578609	      5.33248847	    -17.03006943	     -9.63816005	     15.00442783	      2.11061556	      4.83723219	     12.56117636	     -3.70045613	      0.21923389	     10.33494815	      0.78329688	     -9.63816005	     -4.02854738	     -2.48223944	     -4.38942536	     -8.47168424	     -9.26485160	     -1.20896306	     22.76032648	     90.00000001	      0.00000000	      0.00000000	      4.96896314	    -16.64255811	      1.19762119	     29.58627033	     90.00000001	      0.00000000	      0.00000000
      0.02000000	     -7.13815772	     -2.12300150	      3.44394473	     -1.76150341	      0.96239910	     -0.11043861	     19.38533651	      0.99721594	     -6.32532570	     58.34848540	      0.08925659	      1.01837318	      5.89278251	    -16.96793044	     -9.60695656	     13.94295373	      2.10468789	      4.92515475	     11.85250577	     -3.91388508	      0.20686525	     10.72533252	      1.08981270	     -9.60695656	     -3.89111987	     -2.17474427	     -4.64479771	     -8.87044580	     -9.07977808	     -1.38615086	     22.09978307	     90.00000001	      0.00000000	      0.00000000	      5.58486485	    -16.70629480	      1.49788101	     30.44977373	     90.00000001	      0.00000000	      0.00000000
      0.03000000	     -7.13140951	     -2.14919927	      3.55843227	     -1.75114150	      0.96299334	     -0.11127107	     20.69314484	      0.96501906	     -5.80767394	     57.63007938	      0.35754320	      1.00583463	      6.30674620	    -16.98363822	     -9.57822943	     12.87098995	      2.15711537	      4.99283472	     11.19465470	     -4.08714775	      0.19538358	     11.05880556	      1.35618077	     -9.57822943	     -3.79519898	     -2.00098240	     -4.87704408	     -9.29300626	     -8.84085681	     -1.64474469	     21.55684607	     90.00000001	      0.00000000	      0.00000000	      6.21815040	    -16.85011495	      1.82259361	     31.35715502	     90.00000001	      0.00000000	      0.00000000
      0.04000000	     -6.64973569	     -2.10791082	      3.61529213	     -1.74076932	      0.96407787	     -0.11192767	     21.34488770	      0.92764217	     -4.99318876	     56.58837477	      0.82604119	      0.98765346	      6.48619284	    -17.31872732	     -9.47616511	     10.90663604	      2.22247781	      5.52114168	      9.87272864	     -4.26509807	      0.17231162	     11.00328911	      1.30731019	     -9.47616511	     -4.32971537	     -1.87236702	     -5.00060784	     -9.40179460	     -8.40504133	     -3.19737318	     20.77913417	     90.00000001	      0.00000000	      0.00000000	      6.80603357	    -17.32625554	      3.17065966	     32.74180400	     90.00000001	      0.00000000	      0.00000000
      0.05000000	     -6.64942654	     -2.13806185	      3.74698216	     -1.73049577	      0.96417746	     -0.11269594	     22.54795267	      0.94555082	     -4.72314103	     55.41228956	      0.82409112	      0.96712690	      6.82205915	    -17.40177313	     -9.43391830	      9.80408598	      2.24606188	      5.77061097	      9.12552822	     -4.41151542	      0.15927051	     11.43352923	      1.58510208	     -9.43391830	     -4.26520601	     -1.69178223	     -5.25568710	     -9.80715594	     -8.20121398	     -3.48410743	     20.36420985	     90.00000001	      0.00000000	      0.00000000	      7.41204207	    -17.48396549	      3.40059153	     33.68486533	     90.00000001	      0.00000000	      0.00000000
      0.06000000	     -6.22006397	     -2.14969558	      3.91888694	     -1.71984261	      0.96472104	     -0.11342025	     23.03872989	      1.01389834	     -4.66114865	     53.73805905	      0.62743231	      0.93790606	      6.95974627	    -17.52583538	     -9.33448575	      8.05493732	      2.25916161	      6.11527595	      8.11472109	     -4.60742748	      0.14162860	     11.55022568	      1.57963024	     -9.33448575	     -4.69059528	     -1.50842590	     -5.49620190	    -10.11871643	     -7.91159097	     -4.40291530	     19.94535572	     90.00000001	      0.00000000	      0.00000000	      8.05386194	    -17.78789739	      4.11497504	     34.72021322	     90.00000001	      0.00000000	      0.00000000
      0.07000000	     -6.22846837	     -2.10966886	      4.06009488	     -1.70958476	      0.96433314	     -0.11415742	     24.07924095	      0.98255774	     -4.49764395	     52.08250020	      0.48991680	      0.90901111	      7.21533118	    -17.63674045	     -9.29614072	      6.97505823	      2.36250167	      6.36253493	      7.39963149	     -4.78182257	      0.12914793	     12.02690198	      1.87662694	     -9.29614072	     -4.64080952	     -1.40856705	     -5.75585382	    -10.54341001	     -7.73290155	     -4.64858754	     19.69985873	     90.00000001	      0.00000000	      0.00000000	      8.64737327	    -17.97587444	      4.37375198	     35.64592874	     90.00000001	      0.00000000	      0.00000000
      0.08000000	     -6.36541488	     -1.83892660	      4.20268124	     -1.69947907	      0.96348738	     -0.11492780	     25.24851906	      0.63025357	     -4.56084624	     50.35648029	      0.20380164	      0.87888638	      7.34781332	    -17.45648039	     -9.27858427	      6.32188221	      2.72310402	      6.06900717	      7.24381260	     -4.87967702	      0.12642838	     12.29427608	      1.93863460	     -9.27858427	     -4.47223243	     -1.58905214	     -5.99484037	    -11.05277169	     -7.54303538	     -4.70589710	     19.62955429	     90.00000001	      0.00000000	      0.00000000	      9.37545437	    -18.09973754	      4.43979105	     36.27957256	     90.00000001	      0.00000000	      0.00000000
      0.09000000	     -5.47875084	     -2.01793514	      4.41442589	     -1.68838007	      0.96402540	     -0.11543419	     24.76545308	      1.07943238	     -4.67610255	     47.63330030	     -0.25098195	      0.83135792	      7.30003445	    -17.71787021	     -9.20362648	      3.76070338	      2.44694378	      6.87129076	      5.67729865	     -5.10701896	      0.09908755	     12.47410507	      2.16979396	     -9.20362648	     -5.41731197	     -1.17699817	     -6.23890364	    -11.26868779	     -7.32344105	     -5.64902635	     19.33780178	     90.00000001	      0.00000000	      0.00000000	      9.92419831	    -18.57164043	      5.59084806	     37.53138339	     90.00000001	      0.00000000	      0.00000000
      0.10000000	     -5.33580267	     -1.91199818	      4.57260941	     -1.67802901	      0.96319093	     -0.11606951	     25.29625053	      1.05054610	     -4.69898507	     45.18130900	     -0.58043068	      0.78856260	      7.31498884	    -17.64981326	     -9.12283880	      2.48164433	      2.56784955	      7.22662169	      4.96177336	     -5.24771286	      0.08659928	     12.80707917	      2.13890660	     -9.12283880	     -5.56908713	     -1.13354643	     -6.50885262	    -11.61459251	     -7.16517389	     -6.01014768	     19.22760955	     90.00000001	      0.00000000	      0.00000000	     10.55740222	    -18.80550217	      6.01469865	     38.31970340	     90.00000001	      0.00000000	      0.00000000
      0.11000000	     -5.21407083	     -1.76290302	      4.71260853	     -1.66759482	      0.96209077	     -0.11658461	     25.74469069	      0.99994571	     -4.56063293	     42.52938673	     -0.83546570	      0.74227783	      7.26767212	    -17.56623811	     -9.05655642	      1.25826138	      2.73190584	      7.46629836	      4.31291166	     -5.39581093	      0.07527451	     13.18895654	      2.20966912	     -9.05655642	     -5.69620453	     -1.14991504	     -6.74581431	    -11.98463308	     -6.99137473	     -6.18502998	     19.17177667	     90.00000001	      0.00000000	      0.00000000	     11.14863544	    -19.07332440	      6.49717869	     39.09402445	     90.00000001	      0.00000000	      0.00000000
      0.12000000	     -5.50807178	     -1.31043862	      4.80070924	     -1.65741190	      0.96008158	     -0.11717811	     26.77247350	      0.54952431	     -4.53464555	     40.09599294	     -1.20738646	      0.69980709	      7.30017176	    -17.22264216	     -9.03809084	      0.75000686	      3.32601227	      7.30445487	      4.18720037	     -5.56198862	      0.07308043	     13.64210394	      2.29680590	     -9.03809084	     -5.37049423	     -1.54335565	     -6.98654922	    -12.43907309	     -6.83964072	     -6.19402682	     19.20054295	     90.00000001	      0.00000000	      0.00000000	     11.71909647	    -19.24444393	      6.62864895	     39.63196034	     90.00000001	      0.00000000	      0.00000000
      0.13000000	     -5.04110987	     -1.36252689	      4.90607246	     -1.64685230	      0.95918735	     -0.11751162	     26.42479209	      0.84669641	     -4.01308017	     36.60322797	     -1.29418702	      0.63884684	      6.91993435	    -17.16327320	     -8.97735125	     -0.94607037	      3.15837095	      7.75643063	      3.35458693	     -5.63020137	      0.05854859	     14.05168095	      2.37226361	     -8.97735125	     -5.92022984	     -1.27748169	     -7.11247825	    -12.68181579	     -6.74284756	     -6.32977393	     19.19758088	     90.00000001	      0.00000000	      0.00000000	     12.32465590	    -19.58116792	      7.48421255	     40.48504198	     90.00000001	      0.00000000	      0.00000000
      0.14000000	     -5.04465301	     -1.10449196	      4.97672865	     -1.63652941	      0.95732323	     -0.11787442	     26.73296672	      0.71379374	     -3.59873411	     33.38207624	     -1.48694424	      0.58262714	      6.70097133	    -16.73358962	     -8.92409687	     -1.86288350	      3.44132767	      7.89546690	      3.04327438	     -5.72472555	      0.05311516	     14.55206726	      2.39667686	     -8.92409687	     -5.95330248	     -1.41803808	     -7.29311111	    -12.95960801	     -6.63231437	     -6.33219212	     19.25226746	     90.00000001	      0.00000000	      0.00000000	     12.87229120	    -19.84941710	      7.92212563	     41.07498526	     90.00000001	      0.00000000	      0.00000000
